<mxfile host="app.diagrams.net" modified="2023-04-09T21:51:44.694Z" agent="Mozilla/5.0 (Windows NT 10.0; Win64; x64) AppleWebKit/537.36 (KHTML, like Gecko) Chrome/112.0.0.0 Safari/537.36" version="21.1.5" etag="9XARFgiSzfsLAe3KXIAn" type="github">
  <diagram name="PÃ¡gina-1" id="6lGUKLYxFo1L4uV6y-KQ">
    <mxGraphModel>
      <root>
        <mxCell id="0" />
        <mxCell id="1" parent="0" />
      </root>
    </mxGraphModel>
  </diagram>
</mxfile>
